HIERARCHY
ROOT Hips
{
	OFFSET 64.689003 -29.221914 87.034996
	CHANNELS 6 Xposition Yposition Zposition Xrotation Yrotation Zrotation
	JOINT spine
	{
		OFFSET 0.000000 -0.393702 6.846367
		CHANNELS 3 Xrotation Yrotation Zrotation
		JOINT spine1
		{
			OFFSET 0.000000 -0.000002 9.496208
			CHANNELS 3 Xrotation Yrotation Zrotation
			JOINT spine2
			{
				OFFSET 0.000000 -0.000002 9.099091
				CHANNELS 3 Xrotation Yrotation Zrotation
				JOINT Neck
				{
					OFFSET 0.000000 -1.113785 23.361214
					CHANNELS 3 Xrotation Yrotation Zrotation
					JOINT Head
					{
						OFFSET 0.000000 0.000000 7.058014
						CHANNELS 3 Xrotation Yrotation Zrotation
						End Site
						{
							OFFSET 0.000000 5.634186 17.084396
						}
					}
				}
				JOINT RightShoulder
				{
					OFFSET -3.831360 0.533491 9.826309
					CHANNELS 3 Xrotation Yrotation Zrotation
					JOINT RightArm
					{
						OFFSET 0.000000 -0.000004 12.888100
						CHANNELS 3 Xrotation Yrotation Zrotation
						JOINT RightArmRoll
						{
							OFFSET 0.000000 0.000000 6.506165
							CHANNELS 3 Xrotation Yrotation Zrotation
							JOINT RightForeArm
							{
								OFFSET 0.000000 -0.000004 18.950104
								CHANNELS 3 Xrotation Yrotation Zrotation
								JOINT RightForeArmRoll
								{
									OFFSET 0.000000 0.000000 7.300919
									CHANNELS 3 Xrotation Yrotation Zrotation
									JOINT RightHand
									{
										OFFSET 0.000000 -0.000004 14.651398
										CHANNELS 3 Xrotation Yrotation Zrotation
										End Site
										{
											OFFSET 0.000000 0.000000 0.100006
										}
									}
								}
							}
						}
					}
				}
				JOINT LeftShoulder
				{
					OFFSET 3.831360 0.533491 9.826309
					CHANNELS 3 Xrotation Yrotation Zrotation
					JOINT LeftArm
					{
						OFFSET 0.000000 -0.000004 12.888100
						CHANNELS 3 Xrotation Yrotation Zrotation
						JOINT LeftArmRoll
						{
							OFFSET 0.000000 0.000000 6.506165
							CHANNELS 3 Xrotation Yrotation Zrotation
							JOINT LeftForeArm
							{
								OFFSET 0.000000 -0.000004 18.950104
								CHANNELS 3 Xrotation Yrotation Zrotation
								JOINT LeftForeArmRoll
								{
									OFFSET 0.000000 0.000000 7.300919
									CHANNELS 3 Xrotation Yrotation Zrotation
									JOINT LeftHand
									{
										OFFSET 0.000000 -0.000004 14.651398
										CHANNELS 3 Xrotation Yrotation Zrotation
										End Site
										{
											OFFSET 0.000000 0.000000 0.100006
										}
									}
								}
							}
						}
					}
				}
			}
		}
	}
	JOINT RightUpLeg
	{
		OFFSET -6.068371 0.933477 -1.112778
		CHANNELS 3 Xrotation Yrotation Zrotation
		JOINT RightUpLegRoll
		{
			OFFSET 0.000000 -0.000004 17.179596
			CHANNELS 3 Xrotation Yrotation Zrotation
			JOINT RightLeg
			{
				OFFSET 0.000000 0.000004 -21.274300
				CHANNELS 3 Xrotation Yrotation Zrotation
				JOINT RightLegRoll
				{
					OFFSET 0.000000 -0.000004 21.343903
					CHANNELS 3 Xrotation Yrotation Zrotation
					JOINT RightFoot
					{
						OFFSET 0.000000 -0.000002 17.765198
						CHANNELS 3 Xrotation Yrotation Zrotation
						JOINT RightToeBase
						{
							OFFSET 0.000000 -0.000004 14.850800
							CHANNELS 3 Xrotation Yrotation Zrotation
							End Site
							{
								OFFSET 0.006294 0.829004 7.192123
							}
						}
					}
				}
			}
		}
	}
	JOINT LeftUpLeg
	{
		OFFSET 6.068367 0.933477 -1.112778
		CHANNELS 3 Xrotation Yrotation Zrotation
		JOINT LeftUpLegRoll
		{
			OFFSET 0.000000 -0.000004 17.179703
			CHANNELS 3 Xrotation Yrotation Zrotation
			JOINT LeftLeg
			{
				OFFSET 0.000000 -0.000004 21.274200
				CHANNELS 3 Xrotation Yrotation Zrotation
				JOINT LeftLegRoll
				{
					OFFSET 0.000000 -0.000002 21.541206
					CHANNELS 3 Xrotation Yrotation Zrotation
					JOINT LeftFoot
					{
						OFFSET 0.000000 -0.000004 17.567902
						CHANNELS 3 Xrotation Yrotation Zrotation
						JOINT LeftToeBase
						{
							OFFSET 0.000000 -0.000002 14.850800
							CHANNELS 3 Xrotation Yrotation Zrotation
							End Site
							{
								OFFSET -0.028214 0.829002 7.192139
							}
						}
					}
				}
			}
		}
	}
}
MOTION
Frames: 9
Frame Time: 0.041667
54.757103 -23.852623 92.595497 5.290650 -1.734014 -1.674153 -2.365038 -1.488552 0.153110 -0.724413 -2.981672 0.259471 0.921580 -2.978345 0.295200 7.106432 26.817990 -6.000750 15.209074 -26.669683 -3.494376 -8.857881 -15.156606 -6.351731 -121.220299 -163.588577 -63.322301 -0.000001 0.000001 -0.000005 2.364352 7.128318 1.097501 0.000001 0.000008 -3.000558 -5.000238 -7.998723 0.000162 -20.024156 54.072702 23.711055 -474.567226 189.958667 415.416641 -0.000001 -0.000000 0.000003 3.487189 -19.636767 -3.852536 0.000008 -0.000012 3.003181 -5.000193 7.998719 -0.000160 -13.804595 -175.158302 -1.079643 -179.999991 0.000005 -0.864997 170.145435 -3.116424 -0.466071 0.000002 0.000005 0.054098 65.487806 6.855208 2.454073 25.456959 -7.355616 0.000011 -11.893911 178.846318 0.564081 -0.000005 -0.000005 -0.917338 -15.920355 3.147824 0.693933 0.000001 -0.000004 -0.260029 73.161804 -6.724721 -2.297527 25.456948 7.353774 -0.000002 
54.822308 -23.776718 92.558800 5.349334 -1.747757 -1.683845 -2.363048 -1.480680 0.140013 -0.720768 -2.965515 0.233560 0.925216 -2.962495 0.269098 7.183723 26.756761 -5.985098 15.224989 -26.607919 -3.462519 -8.830700 -14.597202 -6.227953 -121.106180 -163.929144 -62.953027 -0.000001 -0.000003 -0.000005 2.451584 7.276665 1.110395 0.000002 0.000014 -3.000550 -5.000237 -7.998719 0.000166 -19.817879 53.655316 23.462489 -474.547883 190.462885 415.552780 -0.000001 -0.000001 0.000003 3.206659 -19.729850 -3.906467 0.000006 -0.000013 3.003171 -5.000189 7.998713 -0.000158 -13.869940 -175.148959 -1.076929 -179.999991 0.000005 -0.860995 170.271439 -3.150137 -0.461797 0.000002 0.000005 0.053616 65.457029 6.854595 2.455970 25.456959 -7.355613 0.000011 -11.925947 178.863065 0.591671 -0.000004 -0.000004 -0.914741 -15.783900 3.152143 0.687667 -0.000000 -0.000004 -0.257370 73.142481 -6.724430 -2.299246 25.456953 7.353792 -0.000000 
54.786404 -23.782824 92.556694 5.408783 -1.761116 -1.691842 -2.361259 -1.472339 0.127361 -0.717538 -2.948418 0.208548 0.928439 -2.945703 0.243883 7.263872 26.682510 -5.973137 15.237681 -26.533977 -3.435856 -8.810393 -14.051081 -6.115406 -120.998987 -164.282387 -62.595829 -0.000002 -0.000003 -0.000004 2.536472 7.422929 1.122947 -0.000002 0.000010 -3.000541 -5.000239 -7.998720 0.000162 -19.610586 53.226325 23.211845 -474.522256 190.959412 415.695312 -0.000002 -0.000000 0.000003 2.944553 -19.809454 -3.956041 0.000009 -0.000014 3.003159 -5.000192 7.998716 -0.000160 -13.935403 -175.138673 -1.073063 -179.999991 0.000005 -0.858003 170.400707 -3.184872 -0.457347 0.000002 0.000005 0.053206 65.427024 6.854119 2.457548 25.456957 -7.355615 0.000010 -11.960687 178.878870 0.618148 -0.000004 -0.000004 -0.912140 -15.647854 3.157106 0.681551 -0.000000 -0.000004 -0.254705 73.123616 -6.724235 -2.300744 25.456953 7.353821 -0.000004 
54.805103 -23.772018 92.519196 5.468239 -1.774222 -1.698304 -2.359500 -1.463558 0.115106 -0.714348 -2.930453 0.184347 0.931619 -2.928023 0.219468 7.345286 26.597626 -5.963893 15.249038 -26.450205 -3.413025 -8.797065 -13.522245 -6.015282 -120.900236 -164.653513 -62.253643 -0.000001 0.000001 -0.000006 2.617267 7.566667 1.135213 0.000002 0.000014 -3.000543 -5.000236 -7.998723 0.000163 -19.405399 52.788169 22.962843 -474.491384 191.450926 415.845768 -0.000002 -0.000001 0.000003 2.700928 -19.873330 -4.000800 0.000008 -0.000014 3.003150 -5.000190 7.998716 -0.000160 -14.001191 -175.127444 -1.068098 -179.999991 0.000005 -0.854998 170.530631 -3.221591 -0.453035 0.000002 0.000005 0.052889 65.398412 6.853708 2.458952 25.456955 -7.355615 0.000011 -11.997638 178.892722 0.643545 -0.000005 -0.000004 -0.909557 -15.513817 3.162680 0.675640 0.000002 -0.000004 -0.252061 73.105502 -6.724006 -2.302204 25.456955 7.353838 -0.000002 
54.803310 -23.729923 92.490486 5.526957 -1.787176 -1.703426 -2.357590 -1.454358 0.103203 -0.710829 -2.911666 0.160868 0.935130 -2.909534 0.195765 7.426375 26.504563 -5.956412 15.260927 -26.358653 -3.392865 -8.790809 -13.014555 -5.928739 -120.811075 -165.047683 -61.928649 -0.000001 0.000003 -0.000008 2.692244 7.707395 1.147291 -0.000001 0.000008 -3.000530 -5.000241 -7.998721 0.000165 -19.204798 52.343069 22.718585 -474.456304 191.940105 416.007561 -0.000002 0.000001 0.000003 2.475844 -19.919152 -4.040240 0.000011 -0.000012 3.003136 -5.000190 7.998717 -0.000159 -14.067286 -175.116229 -1.061812 -179.999991 0.000006 -0.850995 170.658683 -3.259299 -0.448843 0.000002 0.000005 0.052687 65.371563 6.853356 2.460059 25.456955 -7.355614 0.000011 -12.036591 178.906560 0.667279 -0.000004 -0.000004 -0.907012 -15.383502 3.168870 0.670000 -0.000000 -0.000004 -0.249465 73.088181 -6.723841 -2.303519 25.456953 7.353857 -0.000001 
54.800110 -23.746225 92.471992 5.584197 -1.800090 -1.707382 -2.355328 -1.444799 0.091605 -0.706608 -2.892150 0.138021 0.939339 -2.890292 0.172684 7.505553 26.405511 -5.949708 15.275464 -26.261539 -3.374060 -8.791690 -12.531893 -5.856946 -120.732965 -165.469980 -61.623592 -0.000000 0.000001 -0.000006 2.759638 7.844687 1.159278 -0.000002 0.000012 -3.000520 -5.000238 -7.998722 0.000165 -19.011622 51.893735 22.482479 -474.418000 192.429652 416.182578 -0.000000 -0.000000 0.000003 2.269340 -19.944381 -4.073895 0.000010 -0.000016 3.003131 -5.000186 7.998716 -0.000158 -14.133802 -175.104071 -1.054485 -179.999991 0.000005 -0.848004 170.782282 -3.297948 -0.443887 0.000002 0.000005 0.052619 65.347015 6.853019 2.461024 25.456957 -7.355615 0.000010 -12.077247 178.918486 0.689596 -0.000005 -0.000004 -0.904529 -15.258397 3.175655 0.664684 -0.000000 -0.000004 -0.246945 73.072144 -6.723647 -2.304652 25.456953 7.353876 0.000001 
54.787403 -23.727222 92.439796 5.639195 -1.813056 -1.710328 -2.352536 -1.434890 0.080265 -0.701316 -2.871964 0.115716 0.944620 -2.870370 0.150140 7.581272 26.303135 -5.942928 15.294405 -26.161137 -3.355169 -8.799766 -12.078228 -5.801098 -120.666958 -165.925649 -61.340891 -0.000001 -0.000002 -0.000005 2.817717 7.978068 1.171307 0.000002 0.000009 -3.000509 -5.000241 -7.998719 0.000161 -18.827763 51.442669 22.257117 -474.377347 192.922245 416.374561 -0.000001 -0.000000 0.000002 2.081498 -19.946866 -4.101261 0.000009 -0.000009 3.003114 -5.000187 7.998708 -0.000159 -14.200947 -175.090957 -1.046159 -179.999991 0.000005 -0.844999 170.898928 -3.335571 -0.440015 0.000002 0.000005 0.052707 65.325200 6.852768 2.461738 25.456955 -7.355617 0.000011 -12.119317 178.928430 0.710330 -0.000005 -0.000004 -0.902129 -15.140212 3.183021 0.659754 0.000001 -0.000004 -0.244528 73.057390 -6.723476 -2.305811 25.456960 7.353901 -0.000003 
54.787903 -23.719717 92.406502 5.691212 -1.826218 -1.712455 -2.349026 -1.424682 0.069136 -0.694581 -2.851181 0.093863 0.951344 -2.849848 0.128039 7.651945 26.199521 -5.935111 15.319687 -26.059472 -3.335000 -8.815116 -11.657334 -5.762401 -120.614488 -166.419704 -61.082880 -0.000000 0.000000 -0.000005 2.864724 8.107084 1.183517 0.000001 0.000008 -3.000500 -5.000239 -7.998721 0.000163 -18.655726 50.992229 22.045470 -474.335000 193.420562 416.584985 -0.000001 -0.000003 0.000003 1.912364 -19.924171 -4.121889 0.000009 -0.000015 3.003100 -5.000191 7.998711 -0.000158 -14.268818 -175.076900 -1.036872 -179.999991 0.000005 -0.841993 171.006012 -3.374101 -0.436722 0.000002 0.000005 0.052969 65.306533 6.852586 2.462269 25.456953 -7.355613 0.000010 -12.162585 178.938375 0.728893 -0.000005 -0.000005 -0.899832 -15.030350 3.190971 0.655265 0.000001 -0.000004 -0.242240 73.044263 -6.723269 -2.306865 25.456959 7.353920 -0.000001 
54.774612 -23.660423 92.354294 5.739498 -1.839655 -1.713941 -2.344623 -1.414195 0.058172 -0.686031 -2.829868 0.072371 0.959882 -2.828795 0.106293 7.716046 26.097250 -5.925459 15.353275 -25.958694 -3.312481 -8.837772 -11.273278 -5.742116 -120.576430 -166.957390 -60.851986 -0.000002 -0.000001 -0.000004 2.898886 8.231269 1.196052 0.000000 0.000012 -3.000498 -5.000236 -7.998723 0.000161 -18.497605 50.544978 21.850200 -474.291614 193.927362 416.817157 0.000000 -0.000000 0.000004 1.761993 -19.873938 -4.135333 0.000010 -0.000015 3.003090 -5.000192 7.998715 -0.000158 -14.337395 -175.062898 -1.026398 -179.999991 0.000005 -0.839002 171.101006 -3.411530 -0.434835 0.000002 0.000005 0.053428 65.291602 6.852416 2.462568 25.456957 -7.355613 0.000011 -12.206660 178.946366 0.745534 -0.000005 -0.000004 -0.897663 -14.930611 3.199491 0.651289 0.000001 -0.000004 -0.240110 73.032850 -6.723043 -2.307921 25.456962 7.353947 -0.000004 
